<?xml version="1.0" standalone="no"?>
<!DOCTYPE svg PUBLIC "-//W3C//DTD SVG 20010904//EN"
 "http://www.w3.org/TR/2001/REC-SVG-20010904/DTD/svg10.dtd">
<svg version="1.0" xmlns="http://www.w3.org/2000/svg"
 width="512.000000pt" height="512.000000pt" viewBox="0 0 512.000000 512.000000"
 preserveAspectRatio="xMidYMid meet">
<metadata>
Created by potrace 1.14, written by Peter Selinger 2001-2017
</metadata>
<g transform="translate(0.000000,512.000000) scale(0.100000,-0.100000)"
fill="#000000" stroke="none">
<path d="M220 4742 c0 -12 -58 -151 -118 -282 -27 -59 -79 -180 -91 -212 l-9
-25 64 2 64 3 0 -1869 0 -1869 93 0 c50 0 1055 -1 2232 -3 l2140 -2 0 -60 c0
-34 5 -59 10 -58 6 1 109 45 230 98 121 53 233 101 248 107 40 15 27 24 -123
88 -69 29 -147 64 -175 76 -135 60 -168 74 -180 74 -8 0 -11 -19 -10 -60 l1
-60 -486 0 c-543 0 -3365 0 -3618 0 l-162 0 2 1768 3 1767 62 0 61 -1 -18 46
c-10 25 -40 95 -67 155 -28 61 -67 151 -88 200 -40 93 -65 139 -65 117z"/>
<path d="M1881 3898 c-81 -40 -126 -139 -101 -221 6 -23 16 -47 20 -52 5 -6
-12 -53 -41 -113 -27 -57 -49 -104 -49 -106 0 -2 -32 -71 -72 -152 -39 -82
-72 -151 -73 -154 0 -3 -14 -32 -29 -65 -16 -33 -43 -91 -61 -130 -18 -38 -61
-131 -97 -205 -35 -74 -79 -168 -98 -207 -18 -40 -37 -73 -40 -73 -4 0 -63 57
-131 128 l-123 127 -2 55 c-2 121 -72 196 -189 204 -47 4 -61 0 -106 -27 -136
-83 -128 -270 15 -344 17 -9 55 -17 84 -17 l52 -1 86 -90 c47 -50 140 -146
207 -216 113 -116 532 -550 603 -625 21 -23 34 -48 38 -77 23 -150 193 -221
313 -131 63 47 93 131 74 203 -6 20 5 46 52 126 33 55 70 118 82 140 13 22 63
108 112 190 49 83 92 157 96 165 4 8 15 27 25 42 20 32 105 176 427 728 98
168 183 310 189 316 6 6 23 14 38 18 25 6 44 -9 190 -141 90 -81 168 -152 174
-158 10 -9 123 -112 259 -235 46 -42 63 -64 72 -99 39 -147 215 -205 322 -107
41 38 63 87 67 149 2 40 10 56 54 110 56 68 60 72 110 137 19 25 39 50 45 56
5 6 57 73 115 148 101 130 107 136 142 137 48 2 47 2 84 22 36 19 82 69 96
106 26 69 -1 173 -56 215 -81 62 -184 65 -251 8 -53 -45 -70 -84 -71 -163 l0
-77 -200 -255 -199 -255 -45 3 c-25 2 -61 -2 -81 -9 -25 -9 -38 -9 -46 -2 -6
6 -41 38 -78 71 -37 33 -84 75 -104 94 -20 18 -55 50 -78 71 -23 21 -39 41
-35 45 4 3 2 5 -4 3 -7 -2 -49 31 -95 73 -129 117 -172 156 -199 179 -19 16
-24 29 -22 58 8 106 -92 207 -200 204 -131 -4 -225 -132 -183 -251 l14 -42
-101 -172 c-56 -94 -131 -222 -167 -284 l-66 -111 -36 56 c-21 31 -69 107
-108 167 -39 61 -74 115 -78 120 -21 27 -63 95 -58 95 3 0 -2 8 -11 18 -9 9
-60 84 -113 167 -96 148 -97 150 -85 185 53 155 -125 303 -275 228z m271 -638
c44 -69 91 -141 103 -160 23 -36 136 -211 219 -337 25 -40 49 -79 51 -86 4 -9
-174 -326 -320 -567 -8 -14 -59 -99 -112 -190 -93 -159 -98 -166 -127 -164
-16 1 -40 -2 -53 -7 -21 -8 -30 -3 -66 34 -23 24 -134 139 -247 256 -113 117
-206 214 -208 215 -4 4 25 69 107 240 39 82 71 150 71 151 0 1 36 78 80 169
44 92 80 169 80 170 0 2 33 72 74 157 83 175 141 298 163 348 l15 35 44 -70
c25 -38 81 -125 126 -194z"/>
<path d="M2829 2397 l-57 -94 104 -159 c58 -88 108 -166 112 -174 4 -8 51 -82
105 -164 82 -124 97 -154 92 -175 -23 -86 -11 -143 42 -202 77 -85 215 -83
289 3 l25 31 340 0 340 0 38 -37 c112 -110 296 -58 330 93 11 52 7 83 -20 136
-32 61 -82 93 -156 101 -55 5 -141 -31 -167 -71 l-16 -25 -343 0 -343 0 -30
31 c-42 44 -87 65 -144 68 -9 1 -24 16 -34 34 -11 17 -47 75 -81 127 -34 52
-89 138 -123 190 -34 52 -99 152 -144 222 -46 70 -87 134 -93 143 -8 13 -21
-2 -66 -78z"/>
<path d="M1043 1988 c-12 -24 -37 -77 -56 -118 -41 -88 -112 -239 -186 -396
-51 -108 -54 -111 -94 -121 -48 -13 -104 -63 -123 -110 -53 -124 42 -265 181
-269 139 -5 235 140 180 272 -14 35 -14 41 2 73 9 20 18 38 18 41 1 3 17 39
37 80 53 111 125 264 168 356 l38 81 -72 77 -72 76 -21 -42z"/>
</g>
</svg>
